<?xml version="1.0" encoding="UTF-8"?>
<svg id="Layer_1" data-name="Layer 1" xmlns="http://www.w3.org/2000/svg" version="1.1" viewBox="0 0 839.9 454.9">
  <defs>
    <style>
      .cls-1 {
        fill: #fff;
        stroke-width: 0px;
      }
    </style>
  </defs>
  <polygon class="cls-1" points="196.1 290 100.4 290 100.4 84.8 194.1 84.8 194.1 115.7 140.6 115.7 140.6 168.9 190 168.9 190 199.8 140.6 199.8 140.6 259.1 196.1 259.1 196.1 290"/>
  <polygon class="cls-1" points="268.2 84.8 268.2 254.7 318.8 254.7 318.8 290 228.1 290 228.1 84.8 268.2 84.8"/>
  <path class="cls-1" d="M392.3,242l-7.5,48h-40.2l40.2-205.2h52.6l39.9,205.2h-40.2l-7.5-48h-37.3ZM415.1,148.1c-1.4-9.8-2.6-18.2-3.8-29.2h-.9c-.9,11-2.3,19.4-3.8,29.2l-10.1,64.7h28.6l-10.1-64.7Z"/>
  <path class="cls-1" d="M525.4,84.8l19.4,133.8c2,13.9,2.9,24,3.5,34.7h1.4c.6-10.7,1.4-20.8,3.2-34.7l19.4-133.8h41.3l-39,205.2h-51.2l-39.3-205.2h41.3Z"/>
  <polygon class="cls-1" points="739.5 290 643.8 290 643.8 84.8 737.4 84.8 737.4 115.7 684 115.7 684 168.9 733.4 168.9 733.4 199.8 684 199.8 684 259.1 739.5 259.1 739.5 290"/>
  <path class="cls-1" d="M193.7,329.6h7.9l14.7,39.6h-7.4l-3.6-10.4h-15.5l-3.6,10.4h-7.3l14.7-39.6ZM203.5,353.3l-4.6-13.4c-.5-1.3-.8-2.7-1.2-4.2h-.1c-.4,1.6-.8,3-1.2,4.2l-4.6,13.4h11.7Z"/>
  <path class="cls-1" d="M233.1,369.2v-39.6h15.7c8.4,0,13.8,4.7,13.8,12.1s-5.4,12.2-13.9,12.2h-8.4v15.3h-7.2ZM247.4,348.4c4.7,0,7.6-2.5,7.6-6.6s-2.9-6.6-7.6-6.6h-7.1v13.3h7.1Z"/>
  <path class="cls-1" d="M278,349.4c0-12.9,7.4-20.7,18.7-20.7s18.7,7.9,18.7,20.7-7.4,20.7-18.7,20.7-18.7-8.1-18.7-20.7M296.7,364.4c7.1,0,11.3-5.6,11.3-14.9s-4.1-14.9-11.3-14.9-11.3,5.6-11.3,14.9,4.2,14.9,11.3,14.9"/>
  <polygon class="cls-1" points="329.2 329.6 360.4 329.6 360.4 335.5 348.4 335.5 348.4 369.2 341.2 369.2 341.2 335.5 329.2 335.5 329.2 329.6"/>
  <polygon class="cls-1" points="409.4 369.2 402.2 369.2 402.2 351.9 384.4 351.9 384.4 369.2 377.2 369.2 377.2 329.6 384.4 329.6 384.4 346.2 402.2 346.2 402.2 329.6 409.4 329.6 409.4 369.2"/>
  <polygon class="cls-1" points="456.3 363.6 456.3 369.2 430.2 369.2 430.2 329.6 455.9 329.6 455.9 335.2 437.3 335.2 437.3 346.1 454.9 346.1 454.9 351.7 437.3 351.7 437.3 363.6 456.3 363.6"/>
  <path class="cls-1" d="M472.3,349.3c0-12.3,6.7-20.7,18.6-20.7s15.5,5.6,16.6,14.1l-7.4,1.1c-.7-5.6-4-9.2-9.4-9.2s-11,5.9-11,14.7,3.9,14.8,11.2,14.8,8.5-3.4,9.5-9l7.1,1.4c-1.7,7.9-7.1,13.6-16.7,13.6s-18.5-8.8-18.5-20.8"/>
  <path class="cls-1" d="M535.4,329.6h7.9l14.7,39.6h-7.4l-3.6-10.4h-15.5l-3.6,10.4h-7.3l14.7-39.6ZM545.2,353.3l-4.6-13.4c-.5-1.3-.8-2.7-1.2-4.2h-.1c-.4,1.6-.8,3-1.2,4.2l-4.6,13.4h11.7Z"/>
  <path class="cls-1" d="M574.8,329.6h16c10.2,0,13.7,5.4,13.7,11.9s-2.5,9.2-8.3,10.9l9.4,16.8h-7.9l-8.7-15.9h-7v15.9h-7.2v-39.6ZM589.5,348c5.4,0,7.4-2.7,7.4-6.5s-2-6.4-7.4-6.4h-7.5v12.9h7.5Z"/>
  <path class="cls-1" d="M631.7,354.1l-13.3-24.5h7.8l8.1,15.8c.6,1,.9,1.8,1.1,2.6h.1c.2-.7.5-1.6,1-2.6l8.1-15.8h7.8l-13.3,24.5v15.1h-7.3v-15.1Z"/>
</svg>